<svg height="654pt" viewBox="-20 -20 654.66689 654" width="654pt" xmlns="http://www.w3.org/2000/svg"><path d="m599.613281 204.394531 14.136719-14.136719-57.050781-57.046874v-31.710938l32.917969 32.917969 14.136718-14.136719-49.984375-49.984375c-3.90625-3.898437-10.230469-3.898437-14.136719 0l-22.921874 22.925781-29.988282-29.988281v-21.714844l32.917969 32.917969 14.136719-14.136719-49.984375-49.984375c-3.90625-3.898437-10.230469-3.898437-14.136719 0l-49.984375 49.984375 14.136719 14.136719 32.917968-32.917969v21.714844l-47.054687 47.050781 14.136719 14.136719 32.917968-32.921875v85.832031h19.996094v-85.832031l15.851563 15.855469-12.925781 12.925781 14.136718 14.136719 32.917969-32.917969v31.710938l-57.050781 57.046874 14.136718 14.136719 42.914063-42.914062v31.710937l-47.054687 47.050782 14.136718 14.136718 32.917969-32.917968v31.710937l-57.050781 57.046875 14.136718 14.136719 42.914063-42.914063v31.710938l-47.054687 47.050781 14.136718 14.136719 32.917969-32.917969v155.808594h19.996094v-155.808594l32.917969 32.917969 14.136718-14.136719-47.054687-47.050781v-31.710938l42.914062 42.914063 14.136719-14.136719-57.050781-57.046875v-31.710937l32.917969 32.917968 14.136718-14.136718-47.054687-47.050782v-31.710937zm0 0"/><path d="m129.765625 254.378906 14.136719-14.136718-57.050782-57.046876v-31.714843l32.917969 32.921875 14.136719-14.136719-49.984375-49.984375c-3.902344-3.898438-10.230469-3.898438-14.136719 0l-49.980468 49.984375 14.132812 14.136719 32.921875-32.921875v31.714843l-57.054687 57.046876 14.136718 14.136718 42.917969-42.917968v31.714843l-47.054687 47.050781 14.132812 14.136719 32.921875-32.921875v135.816406h19.992187v-135.816406l32.917969 32.921875 14.136719-14.136719-47.054688-47.050781v-31.714843zm0 0"/><path d="m219.738281 84.433594 14.136719-14.136719-59.980469-59.980469c-3.90625-3.898437-10.230469-3.898437-14.136719 0l-59.980468 59.980469 14.136718 14.136719 42.914063-42.914063v31.710938l-47.054687 47.050781 14.136718 14.136719 32.917969-32.917969v125.816406h19.992187v-125.816406l32.921876 32.917969 14.136718-14.136719-47.058594-47.050781v-31.710938zm0 0"/><path d="m190.339844 356.726562c8.089844-7.6875 12.738281-18.324218 12.886718-29.488281.140626-11.160156-4.234374-21.910156-12.125-29.804687-8.351562-8.359375-8.351562-21.90625 0-30.265625l80.546876-80.554688c16.152343-16.175781 16.152343-42.375 0-58.550781l-5.5625-5.570312c-8.363282-8.355469-8.363282-21.910157 0-30.269532l77.761718-77.765625-14.144531-14.136719-77.765625 77.769532c-16.175781 16.164062-16.175781 42.382812 0 58.546875l5.566406 5.570312c8.351563 8.363281 8.351563 21.90625 0 30.269531l-80.550781 80.554688c-16.140625 16.175781-16.140625 42.363281 0 58.539062 4.082031 4.082032 6.339844 9.640626 6.269531 15.410157-.074218 5.777343-2.476562 11.273437-6.660156 15.25l-176.5625 167.746093 13.753906 14.496094zm0 0"/><path d="m425.5 12.210938-17.511719-9.640626-43.984375 79.914063c-8.722656 15.75-6.226562 35.328125 6.171875 48.375l48.296875 51.144531c8.007813 8.402344 7.824219 21.667969-.421875 29.839844l-35.644531 35.636719c-7.894531 7.886719-12.269531 18.628906-12.125 29.78125.136719 11.152343 4.773438 21.785156 12.855469 29.472656l59.601562 56.71875c8.433594 7.972656 8.941407 21.230469 1.136719 29.820313l-5.199219 5.769531c-14.3125 16.070312-14.019531 40.402343.683594 56.121093l150.058594 158.898438 14.535156-13.738281-150.0625-158.882813c-7.585937-8.121094-7.738281-20.691406-.347656-28.996094l5.1875-5.761718c15.105469-16.617188 14.117187-42.261719-2.210938-57.671875l-59.558593-56.714844c-4.179688-3.976563-6.574219-9.472656-6.648438-15.242187-.070312-5.761719 2.191406-11.316407 6.265625-15.398438l35.648437-35.636719c15.949219-15.800781 16.308594-41.453125.820313-57.703125l-48.292969-51.183594c-6.390625-6.746093-7.683594-16.851562-3.199218-24.992187zm0 0"/><path d="m301.351562 326.863281c13.570313-13.570312 13.570313-35.570312 0-49.144531-5.757812-5.753906-5.757812-15.085938 0-20.839844l32.488282-32.492187c14.929687-14.949219 14.929687-39.164063 0-54.121094l-14.132813 14.136719c7.128907 7.144531 7.128907 18.707031 0 25.847656l-32.492187 32.480469c-13.570313 13.574219-13.570313 35.574219 0 49.144531 5.761718 5.753906 5.761718 15.089844 0 20.84375l-32.488282 32.488281 14.136719 14.136719zm0 0"/><path d="m413.816406 540.144531-64.980468-64.980469c-9.875-9.90625-9.875-25.9375 0-35.847656 17.683593-17.710937 17.683593-46.398437 0-64.117187l-14.996094-14.996094-14.132813 14.136719 14.992188 14.996094c9.875 9.90625 9.875 25.9375 0 35.847656-17.683594 17.71875-17.683594 46.402344 0 64.117187l64.980469 64.980469zm0 0"/><path d="m249.726562 430.179688-39.984374 39.988281c-14.929688 14.957031-14.929688 39.171875 0 54.121093 7.125 7.148438 7.125 18.710938 0 25.851563l-39.988282 39.988281 14.136719 14.136719 39.988281-39.988281c14.925782-14.953125 14.925782-39.167969 0-54.125-7.128906-7.140625-7.128906-18.703125 0-25.847656l39.984375-39.988282zm0 0"/></svg>